<?xml version="1.0" encoding="UTF-8"?>
<svg width="200px" height="61px" viewBox="0 0 200 61" version="1.1" xmlns="http://www.w3.org/2000/svg" xmlns:xlink="http://www.w3.org/1999/xlink">
    <title>postman</title>
    <g id="Page-1" stroke="none" stroke-width="1" fill="none" fill-rule="evenodd">
        <g id="postman" fill-rule="nonzero">
            <path d="M34.012405,1.69313182 C18.1606808,-0.347549924 3.65726412,10.8579793 1.63480275,26.7097035 C-0.387658613,42.5614277 10.7996502,57.0648444 26.6513744,59.0873057 C42.5030986,61.1279875 57.0065153,49.9224583 59.0289767,34.070734 C59.0289767,34.0525137 59.0289767,34.0342933 59.0289767,34.0342933 C61.051438,18.1825691 49.8459088,3.71559318 34.012405,1.69313182 Z" id="Path" fill="#FFFFFF"></path>
            <path d="M76.3747714,20.7152009 L71.4370504,20.7152009 C71.2001856,20.6969805 70.9633208,20.7880824 70.7993374,20.9338454 C70.6353541,21.061388 70.5442522,21.2618121 70.5442522,21.4804565 L70.5442522,38.9720143 C70.5442522,39.2088791 70.6900152,39.445744 70.9086596,39.5550662 C71.3823893,39.8465922 71.9836616,39.8465922 72.4573913,39.5550662 C72.6942562,39.445744 72.8400191,39.2270995 72.8400191,38.9720143 L72.8400191,32.1940357 L76.2290085,32.1940357 C77.7048586,32.2669172 79.1624885,31.7749671 80.3103719,30.8275077 C81.4218147,29.6796242 81.9866462,28.1126722 81.8591036,26.5274998 L81.8591036,26.2906349 C82.0048666,24.7419032 81.4764758,23.1931716 80.4196942,22.0452881 C79.2718107,21.0978287 77.8324013,20.624099 76.3747714,20.7152009 Z M79.7637608,26.7279239 C79.8366422,27.7300444 79.5086755,28.7321649 78.8709625,29.4974205 C78.160368,30.1897947 77.2129086,30.5359818 76.2290085,30.4813206 L72.8400191,30.4813206 L72.8400191,22.6830011 L76.2290085,22.6830011 C77.1764678,22.62834 78.1057068,22.9745271 78.7798606,23.6122401 C79.435794,24.3774958 79.7637608,25.3796163 79.6726589,26.3817368 L79.7637608,26.7279239 Z" id="Shape" fill="#000000"></path>
            <path d="M91.0968326,22.0088473 C89.9853898,23.1567308 89.4387786,24.7419032 89.5663213,26.3270757 L89.5663213,34.1800563 C89.4205583,35.7834491 89.9853898,37.3504011 91.0968326,38.516505 C93.5201421,40.3567626 96.8726907,40.3567626 99.2960003,38.516505 C100.425663,37.3686215 100.990495,35.7834491 100.844732,34.1800563 L100.844732,26.3817368 C101.008715,24.7601236 100.443884,23.1567308 99.2960003,21.990627 C96.8726907,20.1685897 93.5201421,20.1685897 91.0968326,22.0088473 Z M98.6400668,34.1982767 C98.7311687,35.2186175 98.403202,36.220738 97.7472686,36.9859937 C97.0731148,37.6419271 96.1438758,37.9698938 95.2146368,37.9152327 C92.9188698,37.9152327 91.8256475,36.658027 91.8256475,34.1800563 L91.8256475,26.3817368 C91.8256475,23.9037661 92.9553106,22.6647808 95.2146368,22.6647808 C96.1620962,22.6101196 97.0731148,22.9380863 97.7472686,23.5940198 C98.403202,24.3592754 98.7311687,25.3613959 98.6400668,26.3635164 L98.6400668,34.1982767 Z" id="Shape" fill="#000000"></path>
            <path d="M116.87866,29.5156409 C116.022302,29.1330131 115.184165,28.786826 114.346028,28.4770796 C113.562552,28.2219944 112.815517,27.8211462 112.177804,27.2927554 C111.594752,26.8190257 111.285005,26.0719904 111.339667,25.3249552 C111.266785,24.5050384 111.649413,23.7215624 112.323567,23.2660531 C113.088822,22.8105437 113.981621,22.5918993 114.856199,22.6465604 C115.694336,22.62834 116.532473,22.7923234 117.297728,23.1385104 C117.680356,23.3207142 118.062984,23.4846975 118.463832,23.6122401 C118.755358,23.6122401 119.010443,23.4482568 119.137986,23.1931716 C119.283749,22.9563067 119.393071,22.6830011 119.411292,22.4096955 C119.411292,21.8813047 118.901121,21.4440158 117.917221,21.1160491 C116.915101,20.8063027 115.876539,20.6423194 114.819758,20.6605398 C114.145604,20.6605398 113.47145,20.7334213 112.815517,20.8974046 C112.177804,21.061388 111.558311,21.2982528 110.99348,21.6444399 C110.392207,22.0088473 109.918478,22.5372381 109.608731,23.1749512 C109.244324,23.9219865 109.06212,24.7419032 109.08034,25.5800404 C109.0439,26.6003813 109.353646,27.6207221 109.954918,28.4406389 C110.51975,29.1694538 111.266785,29.7525057 112.123143,30.1351336 C112.9795,30.499541 113.817637,30.8275077 114.655774,31.137254 C115.457471,31.42878 116.204506,31.9025097 116.805778,32.503782 C117.407051,33.141495 117.716797,33.9796322 117.680356,34.8359897 C117.753238,35.7470083 117.38883,36.6398066 116.714677,37.2592993 C115.949421,37.8605716 115.001961,38.1338772 114.036282,38.079216 C113.380348,38.0974364 112.742635,37.9881142 112.141363,37.7512493 C111.685854,37.6054863 111.266785,37.3504011 110.902378,37.0224344 L110.082461,36.2389584 C109.918478,36.074975 109.699833,35.9474324 109.481189,35.9109917 C109.226103,35.9292121 108.989239,36.074975 108.861696,36.2936195 C108.679492,36.5304844 108.57017,36.8037899 108.55195,37.1135363 C108.55195,37.733029 109.098561,38.3889624 110.246444,39.0266754 C111.430768,39.7190496 112.797296,40.0652367 114.182045,40.0105755 C115.694336,40.083457 117.170186,39.591507 118.33629,38.6440476 C119.447732,37.587266 120.012564,36.0931954 119.903242,34.5809045 C120.012564,32.4309005 118.82824,30.4266595 116.87866,29.5156409 L116.87866,29.5156409 Z" id="Path" fill="#000000"></path>
            <path d="M137.850309,20.7152009 L127.209611,20.7152009 C126.972746,20.7152009 126.772322,20.8245231 126.626559,21.0067268 C126.335033,21.4257954 126.335033,21.990627 126.626559,22.4096955 C126.754102,22.5918993 126.972746,22.7012215 127.209611,22.7012215 L131.436738,22.7012215 L131.436738,38.9720143 C131.436738,39.2088791 131.56428,39.4275236 131.764704,39.5550662 C132.238434,39.8465922 132.839706,39.8465922 133.313436,39.5550662 C133.532081,39.445744 133.659623,39.2270995 133.659623,38.9720143 L133.659623,22.7012215 L137.832088,22.7012215 C138.068953,22.7194419 138.287598,22.5918993 138.41514,22.3914752 C138.560903,22.1910511 138.633785,21.9359659 138.615564,21.6808806 C138.615564,21.4440158 138.560903,21.2071509 138.41514,21.0067268 C138.269377,20.8245231 138.068953,20.7152009 137.850309,20.7152009 Z" id="Path" fill="#000000"></path>
            <path d="M158.93128,20.7152009 C158.275347,20.7152009 157.692295,21.1707102 157.236785,22.0999492 L153.100761,29.9529298 L149.001177,22.0999492 C148.527447,21.1707102 147.944395,20.7152009 147.306682,20.7152009 L146.851173,20.7152009 C146.341002,20.8063027 145.994815,21.2982528 146.067697,21.8084232 L146.067697,38.9537939 C146.067697,39.2088791 146.19524,39.445744 146.432104,39.5550662 C146.668969,39.7008292 146.942275,39.7737107 147.21558,39.7554903 C147.470666,39.7554903 147.725751,39.6643885 147.944395,39.5186255 C148.16304,39.4093032 148.290582,39.1906588 148.290582,38.9355736 L148.290582,25.1609718 L152.244403,32.7042061 C152.353725,33.0686136 152.663472,33.3236988 153.0461,33.3419191 C153.446948,33.3236988 153.774915,33.0686136 153.902457,32.7042061 L157.856278,25.2885144 L157.856278,38.9355736 C157.856278,39.1724384 157.983821,39.3910829 158.184245,39.5186255 C158.657974,39.7919311 159.241026,39.7919311 159.732976,39.5186255 C159.951621,39.4093032 160.079163,39.1906588 160.079163,38.9355736 L160.079163,21.7537621 C160.097384,21.6626603 160.097384,21.5715584 160.079163,21.4804565 L160.079163,21.4804565 C159.951621,20.9885065 159.459671,20.624099 158.93128,20.7152009 Z" id="Path" fill="#000000"></path>
            <path d="M174.272834,20.7334213 C173.525799,20.7334213 173.08851,20.9885065 172.942747,21.4804565 L167.585957,38.6987087 C167.567737,38.7715902 167.567737,38.8262513 167.585957,38.8991328 C167.585957,39.1906588 167.74994,39.4639644 168.005026,39.591507 C168.278331,39.7554903 168.588078,39.8465922 168.897824,39.8465922 C169.244011,39.9012533 169.590198,39.6826088 169.69952,39.3364217 L170.829183,35.5283639 L177.607162,35.5283639 L178.736825,39.3364217 C178.846147,39.6643885 179.192334,39.8830329 179.538521,39.8283718 C179.866488,39.8465922 180.212675,39.7554903 180.485981,39.5732866 C180.741066,39.4639644 180.905049,39.2270995 180.905049,38.9537939 M180.92327,38.8809124 L180.92327,38.7898106 L175.56648,21.4804565 C175.438938,20.9885065 175.001649,20.7334213 174.254613,20.7334213 L180.92327,38.8809124 Z M171.339354,33.6698858 L174.254613,23.9037661 L177.188093,33.6698858 L171.339354,33.6698858 L171.339354,33.6698858 Z" id="Shape" fill="#000000"></path>
            <path d="M199.690254,20.8974046 C199.216524,20.624099 198.633472,20.624099 198.141522,20.8974046 C197.941098,21.0067268 197.813555,21.2253713 197.795335,21.4622362 L197.795335,34.8542101 L191.290662,22.1181696 C191.126679,21.7173214 190.871593,21.3529139 190.561847,21.0431676 C190.306762,20.8245231 189.978795,20.7152009 189.632608,20.7152009 C188.885573,20.7152009 188.539386,20.9702861 188.539386,21.4804565 L188.539386,38.9720143 C188.521165,39.2088791 188.648708,39.4275236 188.867352,39.5550662 C189.341082,39.8465922 189.942354,39.8465922 190.416084,39.5550662 C190.616508,39.445744 190.744051,39.2088791 190.744051,38.9720143 L190.744051,25.6893626 L197.522029,38.8262513 C197.740674,39.4093032 198.287285,39.7919311 198.888557,39.8283718 C199.161863,39.8283718 199.435168,39.7554903 199.672033,39.6097273 C199.872457,39.4821847 200,39.2635403 200,39.0266754 L200,21.4622362 C200,21.2253713 199.890678,21.0249472 199.690254,20.8974046 Z" id="Path" fill="#000000"></path>
            <path d="M47.6959049,15.2490891 C47.5319215,15.3219706 47.4408196,15.5223947 47.5137011,15.686378 C47.5137011,15.7045984 47.5319215,15.7045984 47.5319215,15.7228188 C47.7141252,16.0872262 47.6776845,16.5427355 47.4043789,16.8524819 C47.2768363,16.9800245 47.2586159,17.198669 47.3861585,17.3262116 C47.3861585,17.3262116 47.3861585,17.3262116 47.4043789,17.3444319 C47.4772604,17.3626523 47.5683623,17.3626523 47.6412437,17.3444319 C47.7323456,17.3444319 47.8416678,17.2897708 47.896329,17.2168893 C48.3518383,16.6884985 48.4429401,15.9414632 48.1149734,15.3219706 C48.0238716,15.194428 47.8416678,15.1579872 47.6959049,15.2490891 Z" id="Path" fill="#FF6C37"></path>
            <path d="M34.1946087,0.253722374 C17.5776288,-1.8962816 2.38183803,9.85585877 0.250054431,26.4728386 C-1.88172917,43.0898185 9.85219083,58.3038297 26.4691707,60.4356133 C43.0861506,62.5673969 58.2819414,50.8334769 60.4319454,34.216497 C62.563729,17.5995172 50.829809,2.38550598 34.1946087,0.253722374 C34.2128291,0.253722374 34.2128291,0.253722374 34.1946087,0.253722374 Z M40.4441965,19.1664692 C39.879365,19.1846896 39.3509742,19.403334 38.950126,19.8041822 L27.6899357,31.0643726 L25.2848465,28.6592834 C36.3628331,17.5995172 38.3852944,17.4901949 40.4441965,19.1664692 Z M28.145445,31.4652208 L39.3691946,20.3143527 C39.9886872,19.7130804 40.9725873,19.7130804 41.59208,20.3143527 C41.9018264,20.624099 42.0658097,21.0431676 42.0475893,21.4622362 C42.029369,21.8995251 41.8471652,22.3003733 41.5191985,22.5918993 L29.6577359,33.0503932 L28.145445,31.4652208 Z M28.9835821,33.1597154 L26.1958651,33.8703099 C26.141204,33.9067507 26.0865429,33.9067507 26.0318818,33.8703099 C25.995441,33.8156488 25.995441,33.7427673 26.0318818,33.6881062 L27.7263764,31.9936116 L28.9835821,33.1597154 Z M21.8776368,31.9936116 L24.8475575,29.0236908 L27.0886634,31.3194578 L22.0051794,32.4126801 C21.8958572,32.4309005 21.7865349,32.358019 21.7683146,32.2486968 C21.7500942,32.1758153 21.7683146,32.1211542 21.8229757,32.0664931 L21.8776368,31.9936116 Z M12.6763486,47.4262672 C12.6034671,47.4080468 12.5305856,47.3533857 12.5123652,47.2987246 C12.4941449,47.2258431 12.4941449,47.1529616 12.5123652,47.0983005 L14.8992341,44.6932113 L17.9966974,47.7724543 L12.6763486,47.4262672 Z M18.7983938,44.237702 L18.7983938,44.237702 C18.561529,44.3652446 18.4339864,44.6203298 18.4886475,44.875415 L18.9988179,47.0618598 C19.0352587,47.2076227 18.9623772,47.3533857 18.8530549,47.4262672 C18.7437327,47.5173691 18.5797493,47.5173691 18.4886475,47.4262672 L15.3911841,44.237702 L24.9022187,34.7084471 L29.5119729,33.724547 L31.716638,35.9292121 C27.7810375,39.2088791 23.4445888,41.9965962 18.8166142,44.2012613 L18.8166142,44.237702 L18.7983938,44.237702 L18.7983938,44.237702 Z M32.1721473,35.5648046 L30.0585841,33.4512414 L41.9200467,23.0109678 C42.029369,22.919866 42.1386912,22.8105437 42.2297931,22.6830011 C41.8471652,26.0719904 37.0734276,30.8821688 32.1721473,35.5648046 Z M41.4280967,19.2211303 C39.6607205,17.3808727 39.733602,14.4656131 41.5738596,12.6982369 C43.2501339,11.0948441 45.8374268,10.9855219 47.6412437,12.4431517 L43.5598803,16.5062948 C43.450558,16.6338374 43.450558,16.8160411 43.5598803,16.9435837 L46.7302251,20.0957082 C44.9446286,20.9702861 42.7946246,20.6058786 41.4098763,19.1846896 L41.4280967,19.2211303 Z M47.9327697,19.2211303 C47.7141252,19.4215544 47.4954808,19.6219785 47.2403955,19.7859619 L44.1975933,16.7431596 L48.0785327,12.8622203 C49.754807,14.6660372 49.7001459,17.4719745 47.9327697,19.2211303 Z" id="Shape" fill="#FF6C37"></path>
        </g>
    </g>
</svg>