<?xml version="1.0" encoding="UTF-8"?>
<svg width="200px" height="57px" viewBox="0 0 200 57" version="1.1" xmlns="http://www.w3.org/2000/svg" xmlns:xlink="http://www.w3.org/1999/xlink">
    <title>swagger_logo</title>
    <g id="Page-1" stroke="none" stroke-width="1" fill="none" fill-rule="evenodd">
        <g id="swagger_logo">
            <g id="Group" transform="translate(175.590540, 32.556616)">
                <rect id="Rectangle" x="0" y="6.99776672e-15" width="6.01594469" height="4.91094511"></rect>
                <polygon id="Path" fill="#173647" fill-rule="nonzero" points="1.00651477 2.24496127 0.661817931 2.24496127 0.661817931 0.431363473 0.0413636207 0.431363473 0.0413636207 0.135416615 1.62696908 0.135416615 1.62696908 0.431363473 1.00651477 0.431363473 1.00651477 2.24496127"></polygon>
                <path d="M3.00969583,2.24496127 L2.39810515,0.483560423 L2.3867794,0.483560423 C2.40302939,0.745037597 2.4114006,0.990264776 2.4114006,1.21924196 L2.4114006,2.24496127 L2.0982189,2.24496127 L2.0982189,0.135909039 L2.58424145,0.135909039 L3.16973365,1.8135978 L3.17859728,1.8135978 L3.78181675,0.135909039 L4.26931656,0.135909039 L4.26931656,2.24496127 L3.93742275,2.24496127 L3.93742275,1.20200712 C3.93742275,1.0971208 3.93988487,0.960719333 3.94530154,0.792310306 C3.9507182,0.623901279 3.95515002,0.521969499 3.95908941,0.486514967 L3.94776366,0.486514967 L3.31450632,2.24496127 L3.00969583,2.24496127 L3.00969583,2.24496127 Z" id="Path" fill="#173647" fill-rule="nonzero"></path>
            </g>
            <g id="Group" transform="translate(0.000000, 0.000000)" fill-rule="nonzero">
                <g>
                    <path d="M24.6344982,48.0945651 C11.6985183,48.0945651 1.17393895,37.5709706 1.17393895,24.6344982 C1.17393895,11.6980259 11.6985183,1.17443137 24.6344982,1.17443137 C37.5704782,1.17443137 48.0950575,11.6990107 48.0950575,24.6349907 C48.0950575,37.5709706 37.5704782,48.0945651 24.6344982,48.0945651 Z" id="Path" fill="#85EA2D"></path>
                    <path d="M24.6344982,2.34837032 C36.9431299,2.34837032 46.9206262,12.3258665 46.9206262,24.6344982 C46.9206262,36.9426375 36.9431299,46.9206262 24.6344982,46.9206262 C12.326359,46.9206262 2.34837032,36.9426375 2.34837032,24.6344982 C2.34837032,12.326359 12.326359,2.34837032 24.6344982,2.34837032 M24.6344982,0 C11.0509807,0 -9.56725918e-16,11.0509807 -9.56725918e-16,24.6344982 C-9.56725918e-16,38.2180158 11.0509807,49.2689965 24.6344982,49.2689965 C38.2180158,49.2689965 49.2694889,38.2180158 49.2694889,24.6344982 C49.2694889,11.0509807 38.2180158,0 24.6344982,0 L24.6344982,0 Z" id="Shape" fill="#173647"></path>
                </g>
                <path d="M15.5118502,16.670524 C15.4360169,17.513554 15.5399184,18.3851446 15.483782,19.2375306 C15.4173048,20.0904091 15.3129109,20.933439 15.1425321,21.776469 C14.9056762,22.979461 14.1571916,23.8889682 13.1250708,24.6468088 C15.1336685,25.9541947 15.360676,27.9810121 15.4931381,30.0368826 C15.5596153,31.1453291 15.5310547,32.2631317 15.6448047,33.3617298 C15.729994,34.2141158 16.0613954,34.4322597 16.9428345,34.4603279 C17.3027965,34.4696839 17.6716221,34.4603279 18.0891977,34.4603279 L18.0891977,37.0938117 C15.4842744,37.5389631 13.3338586,36.800327 12.8030255,34.5932824 C12.6321543,33.788169 12.5184043,32.9638512 12.4809801,32.1301772 C12.4238589,31.2492306 12.5184043,30.368284 12.4524195,29.4873373 C12.2628363,27.0715049 11.950147,26.2570355 9.63920089,26.1432856 L9.63920089,23.1404837 C9.80957962,23.102567 9.97060228,23.0740064 10.140981,23.0552943 C11.4104502,22.988817 11.950147,22.6002945 12.2249196,21.3500298 C12.3578741,20.6493104 12.4337074,19.9387424 12.4617756,19.2188185 C12.5568134,17.8454478 12.5188968,16.4435165 12.7552603,15.0795019 C13.0866617,13.1186693 14.2995022,12.1712454 16.3174559,12.0574954 C16.8857133,12.0289348 17.4638191,12.0574954 18.1172659,12.0574954 L18.1172659,14.7481005 C17.8424932,14.767305 17.6056373,14.8047292 17.3594252,14.8047292 C15.720638,14.7476081 15.6349562,15.3065094 15.5118502,16.670524 Z M18.6663187,22.9036277 L18.628402,22.9036277 C17.6809782,22.856355 16.8665088,23.5949911 16.8187436,24.5424149 C16.7714709,25.4991949 17.510107,26.3141567 18.4575309,26.360937 L18.5712808,26.360937 C19.5093487,26.4180582 20.3139696,25.6976418 20.3710908,24.7600664 L20.3710908,24.665521 C20.3902953,23.708741 19.6230986,22.9228322 18.6663187,22.9036277 Z M24.6059376,22.9036277 C23.6870744,22.8750671 22.9193853,23.5949911 22.8913171,24.5044983 C22.8913171,24.5616195 22.8913171,24.6088922 22.9011656,24.665521 C22.9011656,25.6981342 23.601885,26.3614294 24.6630588,26.3614294 C25.7050281,26.3614294 26.3589673,25.6794221 26.3589673,24.6088922 C26.3491188,23.5762789 25.657263,22.8942716 24.6059376,22.9036277 Z M30.6878672,22.9036277 C29.7217312,22.8844231 28.9161254,23.6521123 28.8880572,24.6182483 C28.8880572,25.5843842 29.66461,26.360937 30.630746,26.360937 L30.6499505,26.360937 C31.5215411,26.5126036 32.4024877,25.6695736 32.4596089,24.6561649 C32.5063892,23.7180971 31.6540032,22.9036277 30.6878672,22.9036277 Z M39.0334701,23.0454458 C37.9343796,22.9981731 37.3848343,22.6288551 37.1105541,21.5863933 C36.939683,20.9235906 36.8357815,20.2317348 36.7978648,19.5497274 C36.7220315,18.2802582 36.7313876,17.001433 36.6461982,15.7319637 C36.4472589,12.7198058 34.2687749,11.6684804 31.1044579,12.1889727 L31.1044579,14.8037444 C31.606238,14.8037444 31.9947606,14.8037444 32.3832832,14.8131004 C33.0559344,14.8224565 33.567563,15.078517 33.6335479,15.8270016 C33.7000251,16.5090089 33.7000251,17.2003723 33.7665024,17.8922281 C33.8994569,19.2660912 33.9747977,20.658174 34.2116537,22.0128326 C34.4204415,23.1306352 35.1876382,23.9643091 36.1439257,24.6463164 C34.4677142,25.7734751 33.9747977,27.3837017 33.8896084,29.1933602 C33.8423357,30.4342688 33.8137751,31.6845335 33.7477902,32.9352906 C33.6906691,34.0718053 33.2932828,34.4411233 32.1469196,34.4696839 C31.8248743,34.47904 31.512185,34.5076006 31.152223,34.5268051 L31.152223,37.2075617 C31.8248743,37.2075617 32.4404044,37.2454783 33.0559344,37.2075617 C34.9694943,37.0938117 36.1252136,36.1655924 36.5043801,34.3086612 C36.6654028,33.2854041 36.7599482,32.2532832 36.7885088,31.22067 C36.8544936,30.2732461 36.84563,29.3164662 36.9401754,28.3788908 C37.0819935,26.9104822 37.7546448,26.3043082 39.2230533,26.2097628 C39.3653639,26.1905583 39.4978259,26.1624901 39.6307804,26.1152174 L39.6307804,23.1119231 C39.384076,23.0833625 39.2132048,23.0552943 39.0334701,23.0454458 Z" id="Shape" fill="#173647"></path>
            </g>
            <g id="Group" transform="translate(60.347553, 11.753177)" fill="#173647" fill-rule="nonzero">
                <g transform="translate(0.303826, -0.000000)">
                    <path d="M14.1832901,16.8674936 C14.1832901,18.8514701 13.4638585,20.3976817 12.0249954,21.5080979 C10.5861324,22.6180217 8.63317855,23.1729836 6.16662645,23.1729836 C3.4942411,23.1729836 1.43837067,22.8287792 6.99776672e-15,22.139878 L6.99776672e-15,19.6112805 C0.924772377,20.0022652 1.932272,20.3105226 3.02200643,20.5365453 C4.11124844,20.7625679 5.19064197,20.875333 6.2596946,20.875333 C8.00681515,20.875333 9.32257223,20.5439316 10.2064734,19.8806364 C11.0903746,19.2178336 11.532079,18.2955234 11.532079,17.1132132 C11.532079,16.3322287 11.3754881,15.6925698 11.061814,15.1937442 C10.7481399,14.6954111 10.2237082,14.235487 9.48901156,13.813972 C8.75382244,13.392457 7.63651226,12.9148057 6.13560374,12.3800332 C4.03886211,11.6300714 2.54090813,10.7407535 1.6417418,9.71257208 C0.742083052,8.68488307 0.292499889,7.34351995 0.292499889,5.68897512 C0.292499889,3.95219547 0.944961763,2.56946872 2.25037794,1.54177972 C3.55579411,0.514090714 5.28223285,1.74944168e-15 7.430679,1.74944168e-15 C9.67120846,1.74944168e-15 11.7320031,0.411174087 13.613063,1.23352226 L12.7956391,3.51541534 C10.935261,2.73443078 9.12609503,2.34393851 7.36863357,2.34393851 C5.98098258,2.34393851 4.89617239,2.64234748 4.11568026,3.23818059 C3.33469571,3.83450612 2.94420343,4.66227096 2.94420343,5.72049026 C2.94420343,6.50147481 3.08799125,7.14162608 3.3755669,7.6394668 C3.66314255,8.13829237 4.14867267,8.5952619 4.83264968,9.01185265 C5.51613427,9.42795097 6.56155054,9.88787504 7.96988334,10.3916249 C10.3340112,11.2346548 11.9604879,12.1392378 12.8498057,13.1053738 C13.7386312,14.0720022 14.1832901,15.3257139 14.1832901,16.8674936 Z" id="Path"></path>
                    <path d="M30.4406703,22.8647262 L27.3418457,12.9512451 C27.1468458,12.3450711 26.7814671,10.967761 26.247187,8.81931484 L26.124081,8.81931484 C25.7129069,10.6181399 25.3534374,12.0057909 25.0446875,12.9817754 L21.8532872,22.8642338 L18.8933262,22.8642338 L14.2837446,5.96719471 L16.9664708,5.96719471 C18.0557129,10.2123825 18.8859398,13.444654 19.4561669,15.6645016 C20.0268864,17.8843493 20.3528711,19.3798411 20.4351059,20.1504848 L20.5582119,20.1504848 C20.670977,19.5649926 20.8536663,18.8066595 21.105295,17.8764705 C21.3569237,16.9462815 21.57556,16.2091226 21.7607115,15.6640092 L24.859536,5.96670229 L27.6343456,5.96670229 L30.656352,15.6640092 C31.2319957,17.4318116 31.622488,18.9169625 31.8278289,20.1194621 L31.9509349,20.1194621 C31.9918061,19.7496516 32.1026015,19.1789321 32.2823363,18.4082885 C32.462071,17.6376448 33.5335858,13.489957 35.4968805,5.96670229 L38.148584,5.96670229 L33.476957,22.8637413 L30.4406703,22.8637413 L30.4406703,22.8647262 Z" id="Path"></path>
                    <path d="M50.0529356,22.8647262 L49.5442615,20.4597271 L49.4211555,20.4597271 C48.5781255,21.5184388 47.7380501,22.2354082 46.9004368,22.6106354 C46.062331,22.9858625 45.0169148,23.1734761 43.7627107,23.1734761 C42.0874841,23.1734761 40.7741891,22.7421126 39.8238107,21.8784008 C38.8729398,21.0151814 38.3977506,19.7870758 38.3977506,18.194084 C38.3977506,14.7815853 41.1267647,12.9931011 46.5843005,12.8286315 L49.4516858,12.7360558 L49.4516858,11.687685 C49.4516858,10.3620794 49.1665723,9.38264796 48.5958528,8.7508679 C48.0256257,8.11859541 47.113164,7.80245917 45.8594523,7.80245917 C44.4511195,7.80245917 42.8581277,8.23431506 41.0799844,9.09753443 L40.2935832,7.13916396 C41.1262723,6.68711868 42.0382417,6.33257336 43.0304761,6.075528 C44.0222182,5.81897507 45.0164223,5.69045239 46.0135811,5.69045239 C48.0280879,5.69045239 49.5211176,6.13757343 50.4921778,7.03181552 C51.4637305,7.9260576 51.9492606,9.35999645 51.9492606,11.3331396 L51.9492606,22.8652186 L50.0529356,22.8652186 L50.0529356,22.8647262 Z M44.2713847,21.0609769 C45.8643766,21.0609769 47.1161185,20.6241967 48.0256257,19.7506365 C48.935133,18.8770762 49.3901328,17.6538948 49.3901328,16.0810924 L49.3901328,14.5545778 L46.831005,14.6624187 C44.7958164,14.7343126 43.3283927,15.0504488 42.4292264,15.610335 C41.5295676,16.1707136 41.0799844,17.0418117 41.0799844,18.2236295 C41.0799844,19.1484018 41.3601737,19.8530607 41.9205523,20.3356362 C42.479946,20.8196891 43.2638851,21.0609769 44.2713847,21.0609769 Z" id="Shape"></path>
                    <path d="M69.4948222,5.96768713 L69.4948222,7.58628501 L66.3649749,7.95609547 C66.6525505,8.31605746 66.9095959,8.78632243 67.1356185,9.36689039 C67.3616412,9.94795078 67.4748987,10.6028748 67.4748987,11.3326472 C67.4748987,12.9871921 66.9095959,14.3078734 65.7789902,15.2946912 C64.6483846,16.281509 63.096264,16.7749179 61.1226284,16.7749179 C60.6188786,16.7749179 60.1461515,16.7340467 59.7044471,16.6518119 C58.6147126,17.2274556 58.0700916,17.9523038 58.0700916,18.8253717 C58.0700916,19.2877578 58.2601673,19.6299926 58.6408111,19.8505985 C59.0209625,20.0716969 59.6739168,20.1819999 60.5986892,20.1819999 L63.5896729,20.1819999 C65.4190283,20.1819999 66.8248989,20.567568 67.8063001,21.3382116 C68.7877012,22.1088553 69.278648,23.22912 69.278648,24.6990058 C69.278648,26.5697248 68.5281937,27.9957849 67.0277776,28.977186 C65.5273615,29.9585871 63.3375518,30.4495339 60.460318,30.4495339 C58.2503188,30.4495339 56.5465316,30.0383598 55.3494487,29.2160117 C54.1518734,28.3936635 53.5535782,27.2325276 53.5535782,25.731619 C53.5535782,24.70393 53.882025,23.8146122 54.5399036,23.0646504 C55.1977821,22.3146885 56.1225545,21.805522 57.3152056,21.5381358 C56.8838421,21.3431359 56.521418,21.0393102 56.2284257,20.6281361 C55.9354334,20.2174545 55.788691,19.7393107 55.788691,19.1941973 C55.788691,18.5776824 55.9531606,18.0379856 56.2820999,17.575107 C56.6110392,17.1127208 57.1300541,16.6655997 57.8391448,16.2337439 C56.9655845,15.8742743 56.2535393,15.2621912 55.7039941,14.3989718 C55.1539564,13.5357524 54.8791838,12.5489346 54.8791838,11.4385184 C54.8791838,9.58848122 55.4341457,8.16242115 56.5440695,7.1603382 C57.6539933,6.15825524 59.2267957,5.65696755 61.2619844,5.65696755 C62.1458856,5.65696755 62.9426277,5.75988418 63.6517183,5.96522501 L69.4948222,5.96522501 L69.4948222,5.96768713 Z M56.0201303,25.7015812 C56.0201303,26.6160126 56.4056983,27.3103306 57.176342,27.7835501 C57.9469856,28.2557848 59.0519852,28.4921483 60.4908483,28.4921483 C62.638802,28.4921483 64.2293317,28.1710878 65.2624374,27.5289668 C66.2955431,26.8863535 66.8116035,26.0152553 66.8116035,24.91518 C66.8116035,24.0002561 66.5284596,23.3660139 65.9636493,23.0109761 C65.3983464,22.6564308 64.3342181,22.4791582 62.7722489,22.4791582 L59.7044471,22.4791582 C58.5428187,22.4791582 57.6387282,22.7563929 56.9911905,23.3118472 C56.3436529,23.8668091 56.0201303,24.6635513 56.0201303,25.7015812 Z M57.4072889,11.3789351 C57.4072889,12.5607528 57.7411524,13.4549949 58.4093718,14.0616613 C59.0770988,14.6683278 60.0072879,14.9711686 61.1999389,14.9711686 C63.6975138,14.9711686 64.9463012,13.7583281 64.9463012,11.3326472 C64.9463012,8.79420121 63.6822486,7.524732 61.1536511,7.524732 C59.9511515,7.524732 59.0263792,7.8482546 58.3788415,8.49628466 C57.7313039,9.14332987 57.4072889,10.1045416 57.4072889,11.3789351 Z" id="Shape"></path>
                    <path d="M86.5026566,5.96768713 L86.5026566,7.58628501 L83.3728093,7.95609547 C83.660385,8.31605746 83.9174303,8.78632243 84.143453,9.36689039 C84.3694756,9.94795078 84.4827332,10.6028748 84.4827332,11.3326472 C84.4827332,12.9871921 83.9174303,14.3078734 82.7868247,15.2946912 C81.6562191,16.281509 80.1040984,16.7749179 78.1304628,16.7749179 C77.626713,16.7749179 77.1539859,16.7340467 76.7122815,16.6518119 C75.6225471,17.2274556 75.0779261,17.9523038 75.0779261,18.8253717 C75.0779261,19.2877578 75.2680018,19.6299926 75.6486456,19.8505985 C76.028797,20.0716969 76.6817513,20.1819999 77.6065236,20.1819999 L80.5975073,20.1819999 C82.4268627,20.1819999 83.8327334,20.567568 84.8141345,21.3382116 C85.7955357,22.1088553 86.2864825,23.22912 86.2864825,24.6990058 C86.2864825,26.5697248 85.5360282,27.9957849 84.0356121,28.977186 C82.535196,29.9585871 80.3453862,30.4495339 77.4681525,30.4495339 C75.2581533,30.4495339 73.5543661,30.0383598 72.3572832,29.2160117 C71.1597079,28.3936635 70.5614127,27.2325276 70.5614127,25.731619 C70.5614127,24.70393 70.8898595,23.8146122 71.5477381,23.0646504 C72.2056166,22.3146885 73.130389,21.805522 74.32304,21.5381358 C73.8916766,21.3431359 73.5292525,21.0393102 73.2362601,20.6281361 C72.9432678,20.2174545 72.7965255,19.7393107 72.7965255,19.1941973 C72.7965255,18.5776824 72.9609951,18.0379856 73.2899344,17.575107 C73.6188736,17.1127208 74.1378886,16.6655997 74.8469792,16.2337439 C73.9734189,15.8742743 73.2613738,15.2621912 72.7118285,14.3989718 C72.1617908,13.5357524 71.8870182,12.5489346 71.8870182,11.4385184 C71.8870182,9.58848122 72.4419801,8.16242115 73.551904,7.1603382 C74.6618278,6.15825524 76.2346302,5.65696755 78.2698188,5.65696755 C79.15372,5.65696755 79.9504621,5.75988418 80.6595528,5.96522501 L86.5026566,5.96522501 L86.5026566,5.96768713 Z M73.0279648,25.7015812 C73.0279648,26.6160126 73.4135328,27.3103306 74.1841764,27.7835501 C74.9548201,28.2557848 76.0598197,28.4921483 77.4986828,28.4921483 C79.6466365,28.4921483 81.2371662,28.1710878 82.2702719,27.5289668 C83.3033775,26.8863535 83.8194379,26.0152553 83.8194379,24.91518 C83.8194379,24.0002561 83.5362941,23.3660139 82.9714837,23.0109761 C82.4061809,22.6564308 81.3420525,22.4791582 79.7800834,22.4791582 L76.7122815,22.4791582 C75.5506532,22.4791582 74.6465626,22.7563929 73.999025,23.3118472 C73.3514874,23.8668091 73.0279648,24.6635513 73.0279648,25.7015812 Z M74.4151233,11.3789351 C74.4151233,12.5607528 74.7489868,13.4549949 75.4172063,14.0616613 C76.0849333,14.6683278 77.0151223,14.9711686 78.2077734,14.9711686 C80.7053482,14.9711686 81.9541356,13.7583281 81.9541356,11.3326472 C81.9541356,8.79420121 80.6900831,7.524732 78.1614855,7.524732 C76.958986,7.524732 76.0342136,7.8482546 75.386676,8.49628466 C74.7391384,9.14332987 74.4151233,10.1045416 74.4151233,11.3789351 Z" id="Shape"></path>
                    <path d="M95.1895094,23.1729836 C92.6919346,23.1729836 90.7207611,22.4126809 89.2769738,20.8910906 C87.832694,19.3699927 87.1108003,17.2579859 87.1108003,14.5545778 C87.1108003,11.8309804 87.7814819,9.66726907 89.122845,8.06393634 C90.4642082,6.46060361 92.2650029,5.65893725 94.5267066,5.65893725 C96.6441301,5.65893725 98.3193567,6.35571729 99.552879,7.74829252 C100.786401,9.14086775 101.402916,10.9781019 101.402916,13.2595026 L101.402916,14.8785928 L89.7629963,14.8785928 C89.8142084,16.8620769 90.3154961,18.3679097 91.2658745,19.3955987 C92.2167454,20.4232877 93.555154,20.9373784 95.2820851,20.9373784 C97.1010996,20.9373784 98.8999247,20.5572271 100.678068,19.7964319 L100.678068,22.078325 C99.7734849,22.4688172 98.9176519,22.7490065 98.1110613,22.9184004 C97.3044707,23.0882867 96.3304559,23.1729836 95.1895094,23.1729836 Z M94.4961763,7.80196674 C93.1395481,7.80196674 92.0576924,8.24367112 91.2506094,9.1275723 C90.4435263,10.0114735 89.9683371,11.2346548 89.8245493,12.7971164 L98.6586369,12.7971164 C98.6586369,11.1834427 98.2991673,9.94745835 97.5797358,9.08916322 C96.8598118,8.23136052 95.8321228,7.80196674 94.4961763,7.80196674 Z" id="Shape"></path>
                    <path d="M111.991018,5.65893725 C112.74098,5.65893725 113.414616,5.72049026 114.010942,5.84359627 L113.656396,8.21806507 C112.957154,8.06393634 112.340639,7.98711819 111.806359,7.98711819 C110.43939,7.98711819 109.270375,8.5420801 108.298823,9.65200392 C107.32727,10.7619277 106.84174,12.1446545 106.84174,13.7991993 L106.84174,22.8647262 L104.282612,22.8647262 L104.282612,5.96768713 L106.395111,5.96768713 L106.688104,9.09704201 L106.81121,9.09704201 C107.438065,7.99745909 108.193444,7.14950487 109.077837,6.55317934 C109.960754,5.95734623 110.931814,5.65893725 111.991018,5.65893725 Z" id="Path"></path>
                </g>
                <g transform="translate(0.000000, 34.458851)">
                    <g transform="translate(60.234788, 0.000000)">
                        <path d="M5.25958134,1.37484796 C5.25958134,1.37484796 3.57056683,1.18231016 2.87132467,1.18231016 C1.85791596,1.18231016 1.33939343,1.54424184 1.33939343,2.2557946 C1.33939343,3.02791552 1.77371145,3.20863515 3.18499879,3.59469561 C4.92227086,4.07727118 5.54912669,4.53571798 5.54912669,5.94700532 C5.54912669,7.75666373 4.41556651,8.54060283 2.78712016,8.54060283 C1.71363571,8.54060283 0.0851893617,8.2146181 0.0851893617,8.2146181 L0.217651433,7.14113366 C0.217651433,7.14113366 1.84609779,7.35829267 2.70242322,7.35829267 C3.7276501,7.35829267 4.19791508,6.89984587 4.19791508,6.03120984 C4.19791508,5.33147525 3.82416522,5.09018747 2.55715812,4.78882394 C0.77212092,4.33086957 0,3.78772584 0,2.35230972 C0,0.687423982 1.09761322,-6.99776672e-15 2.75018835,-6.99776672e-15 C3.79954402,-6.99776672e-15 5.36791463,0.289052921 5.36791463,0.289052921 L5.25958134,1.37484796 Z" id="Path"></path>
                        <polygon id="Path" points="8.76071638 0.144772672 11.0888973 0.144772672 12.9345027 6.59798993 14.780108 0.144772672 17.1201072 0.144772672 17.1201072 8.40764833 15.769388 8.40764833 15.769388 1.26651467 15.6984789 1.26651467 13.6347297 8.06984543 12.2352605 8.06984543 10.1710189 1.26651467 10.0996174 1.26651467 10.0996174 8.40764833 8.76071638 8.40764833 8.76071638 0.144772672"></polygon>
                        <polygon id="Path" points="37.8580538 0.144772672 43.8892637 0.144772672 43.8892637 1.33890101 41.5610827 1.33890101 41.5610827 8.40764833 40.2103636 8.40764833 40.2103636 1.33890101 37.8580538 1.33890101"></polygon>
                        <path d="M49.7156251,0.144772672 C51.3563821,0.144772672 52.2368363,0.759810318 52.2368363,2.29174156 C52.2368363,3.29283966 51.9231622,3.78723341 51.2598669,4.1491651 C51.9714197,4.42639984 52.4416847,4.93310419 52.4416847,6.06715679 C52.4416847,7.7561713 51.4164578,8.40764833 49.8121402,8.40764833 L46.5788839,8.40764833 L46.5788839,0.144772672 L49.7156251,0.144772672 Z M47.9182773,1.30295405 L47.9182773,3.66757437 L49.6914963,3.66757437 C50.5118748,3.66757437 50.8733141,3.25738513 50.8733141,2.44882483 C50.8733141,1.65306756 50.4631248,1.30295405 49.6432388,1.30295405 L47.9182773,1.30295405 L47.9182773,1.30295405 Z M47.9182773,4.80113455 L47.9182773,7.24995938 L49.7402463,7.24995938 C50.572443,7.24995938 51.0668367,6.98454281 51.0668367,5.99526288 C51.0668367,5.05424051 50.3671021,4.80113455 49.7161175,4.80113455 L47.9182773,4.80113455 Z" id="Shape"></path>
                        <polygon id="Path" points="55.7611152 0.144772672 60.972439 0.144772672 60.972439 1.31477223 57.1000162 1.31477223 57.1000162 3.65477134 60.2485757 3.65477134 60.2485757 4.80113455 57.1000162 4.80113455 57.1000162 7.2258306 60.972439 7.2258306 60.972439 8.40764833 55.7611152 8.40764833"></polygon>
                        <path d="M65.7735736,0.144772672 L68.439065,0.144772672 L70.4895188,8.40764833 L69.1387996,8.40764833 L68.5286862,5.98295228 L65.6839524,5.98295228 L65.073839,8.40764833 L63.734938,8.40764833 L65.7735736,0.144772672 Z M65.9513387,4.80113455 L68.2691787,4.80113455 L67.4138381,1.26651467 L66.8106186,1.26651467 L65.9513387,4.80113455 Z" id="Shape"></path>
                        <path d="M74.8090626,5.9588235 L74.8090626,8.40764833 L73.4701616,8.40764833 L73.4701616,0.144772672 L76.6069028,0.144772672 C78.4283794,0.144772672 79.4053487,1.18821925 79.4053487,3.02151401 C79.4053487,4.19151356 78.9350837,5.24727074 78.0546295,5.65696755 L79.4176593,8.40715591 L77.9458038,8.40715591 L76.7516755,5.95833108 L74.8090626,5.95833108 L74.8090626,5.9588235 Z M76.6069028,1.30295405 L74.809555,1.30295405 L74.809555,4.80162697 L76.631524,4.80162697 C77.6449327,4.80162697 78.0305007,3.89064247 78.0305007,3.03431703 C78.0300083,2.09280224 77.5720539,1.30295405 76.6069028,1.30295405 Z" id="Shape"></path>
                        <path d="M22.0788174,0.144772672 L24.7443088,0.144772672 L26.7947626,8.40764833 L25.4440434,8.40764833 L24.83393,5.98295228 L21.9891962,5.98295228 L21.3790828,8.40764833 L20.0401818,8.40764833 L22.0788174,0.144772672 Z M22.2565825,4.80113455 L24.5744225,4.80113455 L23.7190819,1.26651467 L23.1158625,1.26651467 L22.2565825,4.80113455 Z" id="Shape"></path>
                        <path d="M31.1143064,5.9588235 L31.1143064,8.40764833 L29.7754054,8.40764833 L29.7754054,0.144772672 L32.9116542,0.144772672 C34.7331308,0.144772672 35.7101001,1.18821925 35.7101001,3.02151401 C35.7101001,4.19151356 35.2398351,5.24727074 34.3593809,5.65696755 L35.7224107,8.40715591 L34.2505552,8.40715591 L33.0564269,5.95833108 L31.1143064,5.95833108 L31.1143064,5.9588235 Z M32.9116542,1.30295405 L31.1143064,1.30295405 L31.1143064,4.80162697 L32.935783,4.80162697 C33.9491917,4.80162697 34.3347597,3.89064247 34.3347597,3.03431703 C34.3347597,2.09280224 33.8768053,1.30295405 32.9116542,1.30295405 Z" id="Shape"></path>
                    </g>
                    <g transform="translate(0.000000, 1.951477)">
                        <path d="M3.81776371,4.84249817 C3.81776371,5.37677827 3.62424105,5.79336902 3.23670332,6.091778 C2.84916559,6.39018697 2.32374912,6.53988389 1.65996149,6.53988389 C0.940529947,6.53988389 0.387537732,6.44730816 -1.39955334e-14,6.26215672 L-1.39955334e-14,5.58113425 C0.249166572,5.686513 0.519999803,5.76973266 0.81348454,5.83030082 C1.10696928,5.8913614 1.39749947,5.9218917 1.68507512,5.9218917 C2.15534009,5.9218917 2.50939299,5.83276294 2.74772623,5.65401301 C2.98556705,5.4757555 3.10473367,5.22757378 3.10473367,4.90946784 C3.10473367,4.69871034 3.0623852,4.52685435 2.97818069,4.39242258 C2.89397618,4.25799081 2.75265047,4.1348848 2.55518843,4.02113484 C2.35772638,3.90738488 2.05636286,3.77935463 1.65257513,3.63507438 C1.08825716,3.43318052 0.684961862,3.19386243 0.442689226,2.91712011 C0.200909015,2.64037779 0.0797726971,2.27992338 0.0797726971,1.83427961 C0.0797726971,1.36696918 0.255568085,0.994696593 0.606666437,0.717954274 C0.957764789,0.441211954 1.4226131,0.302840794 2.00121136,0.302840794 C2.60443083,0.302840794 3.15890032,0.413636207 3.66511225,0.634734608 L3.4449987,1.24878741 C2.94420343,1.03852233 2.45768846,0.93363601 1.98446895,0.93363601 C1.61121151,0.93363601 1.31920405,1.01390113 1.10893897,1.17393895 C0.898673902,1.33446919 0.793787578,1.55704486 0.793787578,1.84166597 C0.793787578,2.05242346 0.832689079,2.22427946 0.909999655,2.35871123 C0.987310232,2.493143 1.11829503,2.61575658 1.3019692,2.72802927 C1.48564338,2.84030195 1.76730994,2.96390039 2.14647646,3.09931701 C2.78268834,3.3263245 3.22045333,3.56958198 3.45977142,3.82958188 C3.69810466,4.09056663 3.81776371,4.42787711 3.81776371,4.84249817 Z" id="Path"></path>
                        <path d="M5.7091645,1.90912806 L5.7091645,4.85924058 C5.7091645,5.2300359 5.79336902,5.50628579 5.96227047,5.68946754 C6.1306795,5.87215687 6.39511121,5.96325532 6.75458077,5.96325532 C7.23026241,5.96325532 7.57840622,5.83325537 7.79851977,5.57325546 C8.0181409,5.31374799 8.12844389,4.8882936 8.12844389,4.29935443 L8.12844389,1.90912806 L8.81734514,1.90912806 L8.81734514,6.45666422 L8.24859536,6.45666422 L8.1491257,5.84704324 L8.11170147,5.84704324 C7.97037577,6.07109619 7.77488342,6.24245976 7.524732,6.36162638 C7.27408815,6.48030058 6.9884822,6.53988389 6.66791414,6.53988389 C6.1144295,6.53988389 5.70030087,6.40840666 5.42503582,6.14545222 C5.14977078,5.8829902 5.01189204,5.46196763 5.01189204,4.88386179 L5.01189204,1.90863564 L5.7091645,1.90863564 L5.7091645,1.90912806 Z" id="Path"></path>
                        <path d="M12.4844271,6.53988389 C12.1884802,6.53988389 11.9181394,6.48522482 11.6734047,6.37590668 C11.4286699,6.26658854 11.2233291,6.09867193 11.0573822,5.87215687 L11.0076473,5.87215687 C11.0406398,6.13757343 11.0573822,6.38920213 11.0573822,6.62704294 L11.0573822,8.49874678 L10.3689733,8.49874678 L10.3689733,1.90912806 L10.9288595,1.90912806 L11.0243898,2.53155207 L11.0573822,2.53155207 C11.2346548,2.2823855 11.4404881,2.10265072 11.6758668,1.99185531 C11.9112455,1.88105989 12.1806014,1.8259084 12.4849195,1.8259084 C13.088139,1.8259084 13.5534797,2.03223408 13.8814341,2.44439301 C14.2093886,2.85655195 14.3733658,3.43465779 14.3733658,4.17871054 C14.3733658,4.92571783 14.2069264,5.50579337 13.8730629,5.91942958 C13.5391994,6.33306578 13.0763208,6.53988389 12.4844271,6.53988389 Z M12.3849574,2.4114006 C11.9201091,2.4114006 11.5842759,2.53992328 11.376473,2.79696864 C11.16867,3.05401399 11.0623064,3.46371081 11.0568898,4.02507423 L11.0568898,4.17871054 C11.0568898,4.81787696 11.1632533,5.27484649 11.376473,5.55011153 C11.5896926,5.82537658 11.9309425,5.96276289 12.4016998,5.96276289 C12.7946542,5.96276289 13.1024193,5.80420235 13.324995,5.48560398 C13.5475706,5.16749804 13.6593509,4.72924063 13.6593509,4.17033933 C13.6593509,3.60306682 13.5475706,3.16825638 13.324995,2.86541558 C13.1024193,2.56257479 12.7887452,2.4114006 12.3849574,2.4114006 Z" id="Shape"></path>
                        <path d="M17.8193493,6.53988389 C17.5234025,6.53988389 17.2530616,6.48522482 17.0083269,6.37590668 C16.7635921,6.26658854 16.5582513,6.09867193 16.3923044,5.87215687 L16.3425696,5.87215687 C16.375562,6.13757343 16.3923044,6.38920213 16.3923044,6.62704294 L16.3923044,8.49874678 L15.7038956,8.49874678 L15.7038956,1.90912806 L16.2637817,1.90912806 L16.359312,2.53155207 L16.3923044,2.53155207 C16.5695771,2.2823855 16.7754103,2.10265072 17.010789,1.99185531 C17.2461677,1.88105989 17.5155237,1.8259084 17.8198417,1.8259084 C18.4230612,1.8259084 18.8884019,2.03223408 19.2163564,2.44439301 C19.5443108,2.85655195 19.708288,3.43465779 19.708288,4.17871054 C19.708288,4.92571783 19.5418487,5.50579337 19.2079851,5.91942958 C18.8741216,6.33306578 18.411243,6.53988389 17.8193493,6.53988389 Z M17.7198797,2.4114006 C17.2550313,2.4114006 16.9191981,2.53992328 16.7113952,2.79696864 C16.5035922,3.05401399 16.3972286,3.46371081 16.391812,4.02507423 L16.391812,4.17871054 C16.391812,4.81787696 16.4981756,5.27484649 16.7113952,5.55011153 C16.9246148,5.82537658 17.2658647,5.96276289 17.7366221,5.96276289 C18.1295765,5.96276289 18.4373415,5.80420235 18.6599172,5.48560398 C18.8824928,5.16749804 18.9942731,4.72924063 18.9942731,4.17033933 C18.9942731,3.60306682 18.8824928,3.16825638 18.6599172,2.86541558 C18.4373415,2.56257479 18.1236674,2.4114006 17.7198797,2.4114006 Z" id="Shape"></path>
                        <path d="M24.9954451,4.17871054 C24.9954451,4.92030117 24.8088164,5.49889943 24.4350665,5.91499776 C24.0618091,6.33158851 23.5457487,6.53988389 22.8873777,6.53988389 C22.4806354,6.53988389 22.1196886,6.44435362 21.8040448,6.25329309 C21.4888934,6.06223255 21.2451435,5.7889372 21.0737799,5.43192976 C20.9019239,5.07492232 20.8167345,4.65734672 20.8167345,4.17871054 C20.8167345,3.43711991 21.001886,2.85950649 21.3726813,2.44587029 C21.7434766,2.03223408 22.2580598,1.82541598 22.9164307,1.82541598 C23.5526426,1.82541598 24.0578697,2.03715832 24.4330968,2.46015058 C24.8083239,2.8841277 24.9954451,3.45681687 24.9954451,4.17871054 Z M21.530257,4.17871054 C21.530257,4.75977092 21.6464691,5.20196773 21.8788932,5.50628579 C22.1113174,5.81060386 22.4530597,5.96276289 22.9041201,5.96276289 C23.3551805,5.96276289 23.6974153,5.81109628 23.9308243,5.50825549 C24.1647257,5.20590712 24.2814302,4.76223304 24.2814302,4.17871054 C24.2814302,3.60011227 24.1642333,3.16136244 23.9308243,2.86098376 C23.6974153,2.56060509 23.352226,2.41090818 22.8952565,2.41090818 C22.444196,2.41090818 22.1044234,2.55863539 21.8744614,2.85458225 C21.6444994,3.15052911 21.530257,3.59223349 21.530257,4.17871054 Z" id="Shape"></path>
                        <path d="M28.3995726,1.8259084 C28.6014664,1.8259084 28.7826785,1.84215839 28.9432087,1.87564323 L28.8476785,2.51480965 C28.6595725,2.47344603 28.4936256,2.45276422 28.3498377,2.45276422 C27.9815046,2.45276422 27.667338,2.60246114 27.4058608,2.90087011 C27.1443837,3.19927909 27.0138913,3.57155168 27.0138913,4.01719545 L27.0138913,6.45715665 L26.3254825,6.45715665 L26.3254825,1.90962049 L26.8937398,1.90962049 L26.9725277,2.75166562 L27.0055201,2.75166562 C27.1744215,2.45571877 27.3773002,2.22772643 27.6156335,2.06670376 C27.8529819,1.90617352 28.114459,1.8259084 28.3995726,1.8259084 Z" id="Path"></path>
                        <path d="M31.7662758,5.97162653 C31.8879046,5.97162653 32.0055939,5.96227047 32.1188515,5.9445432 C32.232109,5.92632351 32.3222226,5.9076114 32.3886999,5.88840686 L32.3886999,6.4153006 C32.3138514,6.45124756 32.2040408,6.48128542 32.0587757,6.50442935 C31.9135106,6.52806571 31.7825258,6.53988389 31.6668062,6.53988389 C30.7868444,6.53988389 30.3471097,6.07651285 30.3471097,5.14977078 L30.3471097,2.44439301 L29.6956327,2.44439301 L29.6956327,2.11200678 L30.3471097,1.8259084 L30.6376399,0.854848161 L31.036011,0.854848161 L31.036011,1.90912806 L32.3557074,1.90912806 L32.3557074,2.44439301 L31.036011,2.44439301 L31.036011,5.12121018 C31.036011,5.39499796 31.1010109,5.6047706 31.2310109,5.75151297 C31.3610108,5.89825534 31.5397608,5.97162653 31.7662758,5.97162653 Z" id="Path"></path>
                        <path d="M35.2999109,6.53988389 C34.627752,6.53988389 34.0974113,6.33503548 33.7088887,5.92583109 C33.3198737,5.51613427 33.1258587,4.94787691 33.1258587,4.22007416 C33.1258587,3.48734716 33.3060859,2.90480951 33.6675251,2.47295361 C34.028472,2.04159014 34.5135097,1.8259084 35.1221458,1.8259084 C35.6918804,1.8259084 36.1429409,2.01352196 36.4748347,2.38825667 C36.8067285,2.7634838 36.9726754,3.25787755 36.9726754,3.87193035 L36.9726754,4.30772564 L33.8398735,4.30772564 C33.8536614,4.84200574 33.9885856,5.24677832 34.2446461,5.52401306 C34.5007066,5.80075538 34.8606686,5.93912654 35.3255169,5.93912654 C35.8149864,5.93912654 36.2995317,5.83670233 36.7776755,5.63185393 L36.7776755,6.24590673 C36.534418,6.35128547 36.3039635,6.42662635 36.0868045,6.47192937 C35.8686607,6.51723238 35.6066911,6.53988389 35.2999109,6.53988389 Z M35.1132822,2.40253697 C34.7479035,2.40253697 34.4568809,2.52170359 34.2397219,2.76003683 C34.0225629,2.99738523 33.8945326,3.32681692 33.8556311,3.74734707 L36.2335469,3.74734707 C36.2335469,3.31302905 36.1370318,2.98015039 35.9430167,2.74969593 C35.749494,2.51825662 35.4727517,2.40253697 35.1132822,2.40253697 Z" id="Shape"></path>
                        <path d="M41.4118783,5.84704324 L41.374454,5.84704324 C41.0563481,6.308937 40.5806664,6.53988389 39.9469167,6.53988389 C39.3520684,6.53988389 38.8896822,6.33651275 38.5587733,5.92977048 C38.2283567,5.52352064 38.0629022,4.94492237 38.0629022,4.19545296 C38.0629022,3.44598354 38.2288492,2.86344589 38.560743,2.44833241 C38.8926368,2.03321893 39.3545305,1.8259084 39.9464243,1.8259084 C40.5634316,1.8259084 41.0361587,2.04996134 41.3655904,2.49806724 L41.4192646,2.49806724 L41.3902116,2.17011281 L41.3734692,1.85102203 L41.3734692,0 L42.0623704,0 L42.0623704,6.45666422 L41.5019919,6.45666422 L41.4118783,5.84704324 Z M40.0345682,5.96325532 C40.5048331,5.96325532 40.8455906,5.83522506 41.0573329,5.57965698 C41.2690753,5.32408889 41.3749464,4.91094511 41.3749464,4.34071805 L41.3749464,4.19545296 C41.3749464,3.55086987 41.267598,3.09143822 41.0533935,2.81568075 C40.8386967,2.5404157 40.4964619,2.40253697 40.026197,2.40253697 C39.6224092,2.40253697 39.3131669,2.55962024 39.0989625,2.87378679 C38.8842656,3.18795334 38.7774096,3.63113499 38.7774096,4.20382417 C38.7774096,4.78488455 38.8837732,5.22314196 39.0969928,5.51908882 C39.30972,5.8155281 39.6224092,5.96325532 40.0345682,5.96325532 Z" id="Shape"></path>
                        <path d="M48.1886181,1.83427961 C48.7864209,1.83427961 49.2502844,2.03863559 49.5811933,2.44636271 C49.9116099,2.85458225 50.0770644,3.43170325 50.0770644,4.17920296 C50.0770644,4.92621026 49.910625,5.50628579 49.5767615,5.919922 C49.2433904,6.33355821 48.7805118,6.54037631 48.1886181,6.54037631 C47.8926713,6.54037631 47.6223304,6.48571724 47.3775957,6.3763991 C47.1328609,6.26708096 46.9275201,6.09916436 46.7615732,5.87264929 L46.7118384,5.87264929 L46.5665733,6.45764907 L46.0731644,6.45764907 L46.0731644,0 L46.7615732,0 L46.7615732,1.56886304 C46.7615732,1.92045382 46.7507399,2.23560521 46.7285808,2.51480965 L46.7615732,2.51480965 C47.0816488,2.0612871 47.5578229,1.83427961 48.1886181,1.83427961 Z M48.088656,2.4114006 C47.6183911,2.4114006 47.2796033,2.54583237 47.0722928,2.81568075 C46.8649822,3.08552913 46.7610808,3.54003654 46.7610808,4.17920296 C46.7610808,4.81836939 46.8674444,5.27533891 47.080664,5.55060396 C47.2938836,5.82586901 47.6351335,5.96325532 48.1058909,5.96325532 C48.5293756,5.96325532 48.844527,5.80961901 49.0518375,5.50086913 C49.259148,5.19261167 49.3630495,4.74943002 49.3630495,4.17132418 C49.3630495,3.57893804 49.259148,3.13772608 49.0518375,2.84768832 C48.844527,2.55765055 48.522974,2.4114006 48.088656,2.4114006 Z" id="Shape"></path>
                        <path d="M50.6733899,1.90912806 L51.412026,1.90912806 L52.4077074,4.50272557 C52.6258513,5.09461928 52.7617603,5.52204336 52.8144497,5.78499781 L52.8474421,5.78499781 C52.8833891,5.64416453 52.9587299,5.40287674 53.0734647,5.06064202 C53.1881995,4.71939215 53.5639191,3.66855922 54.200131,1.90962049 L54.9387671,1.90962049 L52.984336,7.08844428 C52.7903209,7.60007288 52.5642983,7.96298941 52.3057756,8.1776863 C52.047253,8.39238318 51.7296395,8.4992392 51.3534275,8.4992392 C51.1431624,8.4992392 50.9353595,8.47560285 50.7310035,8.42833014 L50.7310035,7.87632277 C50.8831625,7.90980761 51.0530488,7.92655003 51.2416473,7.92655003 C51.7143744,7.92655003 52.0521773,7.66113346 52.2540711,7.12980791 L52.5071771,6.4827627 L50.6733899,1.90912806 Z" id="Path"></path>
                    </g>
                </g>
            </g>
        </g>
    </g>
</svg>